<svg width="283" height="266" viewBox="0 0 283 266" fill="none" xmlns="http://www.w3.org/2000/svg">
<path class="changeColor" d="M239.275 233.55L206.497 208.834C217.552 197.353 227.607 181.006 237.222 162.523L270 187.238C256.902 203.096 245.807 218.659 239.275 233.55Z" fill="#6C63FF"/>
<path d="M239.284 207.236C244.627 207.236 248.958 202.618 248.958 196.922C248.958 191.226 244.627 186.609 239.284 186.609C233.941 186.609 229.61 191.226 229.61 196.922C229.61 202.618 233.941 207.236 239.284 207.236Z" fill="white"/>
<path d="M81.1597 120.767H77.5617C77.4352 120.767 77.3138 120.821 77.2244 120.916C77.1349 121.011 77.0847 121.141 77.0847 121.276V122.959C77.0847 123.026 77.097 123.092 77.121 123.154C77.145 123.215 77.1801 123.272 77.2244 123.319C77.2687 123.366 77.3213 123.403 77.3792 123.429C77.437 123.455 77.4991 123.468 77.5617 123.468H78.1579V125.99H80.5634V123.468H81.1597C81.2862 123.468 81.4075 123.414 81.497 123.319C81.5864 123.223 81.6367 123.094 81.6367 122.959V121.276C81.6367 121.141 81.5864 121.011 81.497 120.916C81.4075 120.821 81.2862 120.767 81.1597 120.767V120.767Z" fill="#E6E6E6"/>
<path class="changeColor" d="M84.7634 136.176C82.5599 132.738 81.4334 128.645 81.5454 124.484C81.5474 124.388 81.5182 124.294 81.4626 124.218C81.4071 124.142 81.3288 124.09 81.2408 124.069V123.341H77.4409V124.058H77.3886C77.3374 124.059 77.2867 124.069 77.2394 124.09C77.1921 124.111 77.1492 124.142 77.113 124.181C77.0769 124.219 77.0482 124.265 77.0287 124.316C77.0091 124.366 76.9991 124.42 76.9992 124.475C76.9992 124.485 76.9995 124.495 77.0002 124.505C77.351 128.752 76.2763 132.993 73.9676 136.474C73.834 136.677 73.7658 136.92 73.7731 137.168L74.1886 150.87C74.1986 151.176 74.3189 151.466 74.5245 151.679C74.73 151.892 75.0049 152.013 75.2917 152.015H83.8866C84.1767 152.013 84.4544 151.89 84.6606 151.672C84.8668 151.454 84.9851 151.159 84.9904 150.85L85.1505 137.546C85.1552 137.058 85.0202 136.58 84.7634 136.176V136.176Z" fill="#6C63FF"/>
<path opacity="0.2" d="M80.4096 121.316C80.4096 121.607 80.3012 121.886 80.1082 122.091C79.9152 122.297 79.6534 122.413 79.3805 122.413C79.1075 122.413 78.8458 122.297 78.6528 122.091C78.4598 121.886 78.3513 121.607 78.3513 121.316" fill="black"/>
<path d="M83.0894 138.816H75.8338V143.972H83.0894V138.816Z" fill="white"/>
<path d="M195.019 174.296H188.284C188.047 174.296 187.82 174.396 187.652 174.575C187.485 174.753 187.391 174.995 187.391 175.248V178.399C187.391 178.652 187.485 178.894 187.652 179.073C187.82 179.251 188.047 179.351 188.284 179.351H189.4V184.074H193.903V179.351H195.019C195.256 179.351 195.483 179.251 195.65 179.073C195.818 178.894 195.912 178.652 195.912 178.399V175.248C195.912 174.995 195.818 174.753 195.65 174.575C195.483 174.396 195.256 174.296 195.019 174.296V174.296Z" fill="#E6E6E6"/>
<path class="changeColor" d="M201.765 203.139C197.64 196.705 195.531 189.044 195.741 181.253C195.744 181.073 195.69 180.898 195.586 180.756C195.482 180.615 195.335 180.516 195.171 180.476V179.114H188.058V180.457H187.96C187.864 180.457 187.769 180.478 187.68 180.517C187.592 180.556 187.511 180.614 187.444 180.686C187.376 180.758 187.322 180.844 187.286 180.939C187.249 181.033 187.231 181.134 187.231 181.236C187.231 181.255 187.231 181.274 187.233 181.293C187.793 189.621 185.901 197.089 181.556 203.698C181.306 204.078 181.178 204.534 181.192 204.997L181.97 230.647C181.988 231.219 182.214 231.761 182.598 232.16C182.983 232.56 183.498 232.785 184.035 232.79H200.123C200.666 232.785 201.186 232.554 201.572 232.147C201.958 231.74 202.18 231.188 202.189 230.609L202.489 205.706C202.498 204.792 202.245 203.896 201.765 203.139V203.139Z" fill="#6C63FF"/>
<path opacity="0.2" d="M193.615 175.323C193.615 175.868 193.412 176.39 193.05 176.775C192.689 177.16 192.199 177.377 191.688 177.377C191.177 177.377 190.687 177.16 190.326 176.775C189.965 176.39 189.762 175.868 189.762 175.323" fill="black"/>
<path d="M199.218 211.659H185.214C185.006 211.659 184.802 211.707 184.613 211.799C184.425 211.892 184.257 212.026 184.122 212.194C183.987 212.362 183.888 212.559 183.831 212.771C183.774 212.984 183.761 213.207 183.793 213.425L185.909 228.09H198.06L200.631 213.475C200.67 213.253 200.662 213.025 200.609 212.807C200.556 212.589 200.459 212.387 200.324 212.213C200.189 212.04 200.02 211.9 199.829 211.805C199.638 211.709 199.429 211.659 199.218 211.659V211.659Z" fill="white"/>
<path class="changeColor" d="M175.802 233.509H135.655C138.462 217.331 137.816 197.795 135.655 176.785H175.802C173.699 197.795 173.07 217.331 175.802 233.509Z" fill="#6C63FF"/>
<path d="M155.971 213.913C161.313 213.913 165.645 209.296 165.645 203.6C165.645 197.904 161.313 193.286 155.971 193.286C150.628 193.286 146.296 197.904 146.296 203.6C146.296 209.296 150.628 213.913 155.971 213.913Z" fill="white"/>
<path d="M11.5895 54.9899L20.6022 54.1163L26.3379 39.2673L16.0961 33.1525L11.5895 54.9899Z" fill="#FFB8B8"/>
<path d="M94.3033 95.7556C94.6029 94.9588 94.7207 94.0974 94.6469 93.2426C94.5731 92.3877 94.3097 91.5638 93.8786 90.8388C93.4475 90.1137 92.861 89.5083 92.1673 89.0723C91.4736 88.6363 90.6927 88.3823 89.8889 88.3312L75.8953 87.4416L73.8349 94.746L88.2406 98.9638C89.4443 99.3162 90.7277 99.184 91.8458 98.5923C92.964 98.0006 93.8387 96.9908 94.3033 95.7556V95.7556Z" fill="#FFB8B8"/>
<path d="M79.2773 99.0864L79.1233 85.3801L48.0403 80.0926L24.0944 50.8141C22.8485 49.2907 21.127 48.3004 19.2487 48.0266C17.3704 47.7528 15.4627 48.214 13.8789 49.3248C12.92 49.9974 12.1114 50.8863 11.5101 51.9287C10.9089 52.9711 10.5297 54.1415 10.3995 55.3573C10.2693 56.5731 10.3911 57.8046 10.7564 58.9646C11.1216 60.1247 11.7215 61.1851 12.5134 62.0709L32.2686 87.9893L79.2773 99.0864Z" fill="#575A89"/>
<path d="M4.62506 253.275H12.8185L33.1414 155.317L54.1955 185.578L66.4857 251.091H74.2695L72.6308 180.774L45.1827 105.653H18.1443C10.7554 119.909 4.95908 134.605 11.5895 149.765L4.62506 253.275Z" fill="#353176"/>
<path d="M61.4629 259.224C61.3724 259.534 61.3446 259.86 61.3814 260.181C61.4183 260.502 61.5189 260.812 61.6767 261.088C61.8344 261.365 62.0457 261.603 62.2963 261.786C62.5469 261.969 62.8313 262.092 63.1303 262.149L83.1798 265.942C83.972 266.097 84.79 265.937 85.4793 265.493C86.1687 265.049 86.6818 264.351 86.9221 263.532V263.532C87.1557 262.749 87.1231 261.903 86.8299 261.143C86.5367 260.383 86.0016 259.757 85.3187 259.376C80.9102 256.963 77.1162 253.446 74.2617 249.128C72.0582 251.315 69.5952 251.109 66.9799 249.497L64.2059 249.867L61.4629 259.224Z" fill="#19191B"/>
<path d="M0.831411 259.224C0.740818 259.534 0.713016 259.86 0.749865 260.181C0.786715 260.502 0.887364 260.812 1.04511 261.088C1.20286 261.365 1.4141 261.603 1.66475 261.786C1.91539 261.969 2.1997 262.092 2.49875 262.149L22.5482 265.942C23.3405 266.097 24.1584 265.937 24.8477 265.493C25.5371 265.049 26.0503 264.351 26.2905 263.532V263.532C26.5242 262.749 26.4915 261.903 26.1983 261.143C25.9051 260.383 25.37 259.757 24.6871 259.376C20.2787 256.963 16.4847 253.446 13.6302 249.128C11.4266 251.315 8.96369 251.109 6.34835 249.497L3.57432 249.867L0.831411 259.224Z" fill="#19191B"/>
<path d="M26.5426 44.7264C32.8777 44.7264 38.0134 39.2513 38.0134 32.4974C38.0134 25.7435 32.8777 20.2684 26.5426 20.2684C20.2074 20.2684 15.0717 25.7435 15.0717 32.4974C15.0717 39.2513 20.2074 44.7264 26.5426 44.7264Z" fill="#FFB8B8"/>
<path d="M16.3007 108.929L46.2068 108.055L37.4241 78.5863C42.8821 69.2581 37.389 59.9393 29.6151 50.6225L23.47 46.255L13.6379 45.3815C9.38091 50.2377 7.05165 56.6616 7.13793 63.3076C7.33261 77.5392 9.6963 93.0317 16.3007 108.929Z" fill="#575A89"/>
<path d="M85.0114 128.765C85.581 128.158 86.0071 127.415 86.2546 126.598C86.5022 125.781 86.5641 124.914 86.4353 124.066C86.3065 123.219 85.9906 122.416 85.5138 121.724C85.0369 121.033 84.4127 120.472 83.6925 120.087L71.1554 113.401L66.5659 119.252L78.2537 129.171C79.2304 130 80.459 130.417 81.7054 130.342C82.9517 130.267 84.1285 129.705 85.0114 128.765V128.765Z" fill="#FFB8B8"/>
<path d="M69.9678 125.525L74.8839 112.859L48.2581 94.9623L37.0467 58.0017C36.4634 56.0787 35.2461 54.4462 33.6202 53.4068C31.9944 52.3673 30.0703 51.9913 28.2044 52.3483V52.3483C27.0746 52.5645 26.0032 53.0426 25.0658 53.7488C24.1284 54.455 23.3479 55.3721 22.7795 56.4352C22.2112 57.4983 21.8688 58.6816 21.7765 59.9013C21.6843 61.1211 21.8444 62.3475 22.2457 63.494L30.8441 95.6078L69.9678 125.525Z" fill="#575A89"/>
<path d="M7.69763 27.6931C7.69763 32.4515 10.5963 39.8206 14.2524 42.9794C16.7124 45.1048 19.9634 45.0153 21.2168 42.1059C22.5026 39.1214 26.9349 32.1061 34.736 27.6931C45.1354 21.8103 31.0481 11.7457 21.2168 13.2804C13.8292 14.4336 7.69763 19.7332 7.69763 27.6931Z" fill="#463C19"/>
<path d="M14.6621 21.1419C19.1872 21.1419 22.8555 17.2311 22.8555 12.4069C22.8555 7.5827 19.1872 3.67191 14.6621 3.67191C10.137 3.67191 6.46863 7.5827 6.46863 12.4069C6.46863 17.2311 10.137 21.1419 14.6621 21.1419Z" fill="#463C19"/>
<path d="M24.0845 9.34966C24.0837 7.14749 23.3023 5.02701 21.8967 3.41323C20.4912 1.79945 18.5655 0.811618 16.5056 0.647728C16.7092 0.631576 16.9127 0.614655 17.1201 0.614655C19.2932 0.614655 21.3772 1.53495 22.9138 3.17308C24.4503 4.81121 25.3136 7.03299 25.3136 9.34966C25.3136 11.6663 24.4503 13.8881 22.9138 15.5262C21.3772 17.1644 19.2932 18.0847 17.1201 18.0847C16.9127 18.0847 16.7092 18.0677 16.5056 18.0516C18.5655 17.8877 20.4912 16.8998 21.8967 15.2861C23.3022 13.6723 24.0837 11.5518 24.0845 9.34966Z" fill="#463C19"/>
<path d="M26.7474 36.8649C27.7655 36.8649 28.5909 35.6917 28.5909 34.2444C28.5909 32.7971 27.7655 31.6239 26.7474 31.6239C25.7292 31.6239 24.9039 32.7971 24.9039 34.2444C24.9039 35.6917 25.7292 36.8649 26.7474 36.8649Z" fill="#FFB8B8"/>
<path d="M258.894 237.255H131.347L104.338 101.136H81.2876V95.0283H108.982L135.991 231.147H258.894V237.255Z" fill="#3F3D56"/>
<path d="M150.039 262.123C156.819 262.123 162.316 256.263 162.316 249.035C162.316 241.806 156.819 235.946 150.039 235.946C143.258 235.946 137.762 241.806 137.762 249.035C137.762 256.263 143.258 262.123 150.039 262.123Z" fill="#3F3D56"/>
<path d="M241.706 262.123C248.487 262.123 253.983 256.263 253.983 249.035C253.983 241.806 248.487 235.946 241.706 235.946C234.926 235.946 229.43 241.806 229.43 249.035C229.43 256.263 234.926 262.123 241.706 262.123Z" fill="#3F3D56"/>
<path d="M256.569 234.379H132.473L110.577 119.023H277.116C277.966 119.024 278.806 119.22 279.577 119.599C280.349 119.978 281.035 120.531 281.587 121.219C282.14 121.908 282.546 122.716 282.777 123.587C283.009 124.459 283.06 125.374 282.929 126.269L262.38 229.081C262.168 230.56 261.465 231.909 260.398 232.881C259.331 233.854 257.972 234.385 256.569 234.379V234.379ZM133.82 232.634H256.569C257.582 232.639 258.562 232.255 259.332 231.553C260.102 230.851 260.61 229.877 260.762 228.81L281.311 125.998C281.406 125.352 281.369 124.692 281.202 124.062C281.035 123.433 280.742 122.85 280.343 122.353C279.945 121.856 279.45 121.457 278.893 121.184C278.336 120.91 277.729 120.768 277.116 120.769H112.564L133.82 232.634Z" fill="#3F3D56"/>
<path d="M156.597 234.01L142.258 120.038L143.873 119.754L158.212 233.726L156.597 234.01Z" fill="#3F3D56"/>
<path d="M236.328 233.135L234.712 232.856L248.632 119.756L250.248 120.036L236.328 233.135Z" fill="#3F3D56"/>
<path d="M198.341 119.896H196.704V233.868H198.341V119.896Z" fill="#3F3D56"/>
<path d="M118.939 150.436L118.935 152.181L277.387 152.59L277.391 150.845L118.939 150.436Z" fill="#3F3D56"/>
<path d="M266.21 204.344L127.006 205.359L127.017 207.104L266.221 206.089L266.21 204.344Z" fill="#3F3D56"/>
<path d="M83.7431 102.445C88.7154 102.445 92.7462 100.101 92.7462 97.2094C92.7462 94.318 88.7154 91.9741 83.7431 91.9741C78.7708 91.9741 74.74 94.318 74.74 97.2094C74.74 100.101 78.7708 102.445 83.7431 102.445Z" fill="#3F3D56"/>
</svg>
