<svg width="176" height="376" viewBox="0 0 176 376" fill="none" xmlns="http://www.w3.org/2000/svg">
<path d="M175.531 89.1846H173.597V32.6948C173.597 28.4013 172.804 24.1497 171.263 20.183C169.721 16.2163 167.462 12.612 164.615 9.57605C161.767 6.54006 158.386 4.13178 154.665 2.48872C150.944 0.845654 146.957 -1.34325e-05 142.929 1.60026e-10H30.6679C26.6405 -1.34325e-05 22.6526 0.845653 18.9318 2.48872C15.211 4.13178 11.8302 6.54006 8.9824 9.57606C6.13462 12.6121 3.87564 16.2163 2.33444 20.183C0.793234 24.1498 -6.2999e-06 28.4013 0 32.6948V342.602C-3.77993e-06 346.896 0.79324 351.147 2.33444 355.114C3.87565 359.081 6.13463 362.685 8.98241 365.721C11.8302 368.757 15.211 371.165 18.9318 372.808C22.6526 374.451 26.6405 375.297 30.6679 375.297H142.929C146.957 375.297 150.944 374.451 154.665 372.808C158.386 371.165 161.767 368.757 164.615 365.721C167.462 362.685 169.721 359.081 171.263 355.114C172.804 351.147 173.597 346.896 173.597 342.602V129.395H175.531V89.1846Z" fill="#E6E6E6"/>
<path d="M144.167 8.5061H129.513C130.187 10.2675 130.444 12.1785 130.262 14.0708C130.08 15.9631 129.464 17.7787 128.469 19.3575C127.473 20.9363 126.129 22.23 124.555 23.1245C122.98 24.0191 121.223 24.487 119.439 24.4872H55.1256C53.3412 24.487 51.5843 24.0191 50.0096 23.1245C48.4349 22.23 47.0907 20.9363 46.0954 19.3575C45.1002 17.7787 44.4844 15.9631 44.3023 14.0708C44.1202 12.1785 44.3775 10.2675 45.0514 8.5061H31.3647C28.3571 8.5061 25.379 9.13763 22.6003 10.3647C19.8217 11.5917 17.2969 13.3901 15.1702 15.6574C13.0436 17.9246 11.3566 20.6162 10.2056 23.5785C9.05468 26.5408 8.46228 29.7158 8.46228 32.9222V342.375C8.46228 345.581 9.05467 348.756 10.2056 351.719C11.3566 354.681 13.0436 357.373 15.1702 359.64C17.2969 361.907 19.8217 363.706 22.6003 364.933C25.3789 366.16 28.3571 366.791 31.3647 366.791H144.167C147.174 366.791 150.152 366.16 152.931 364.933C155.71 363.706 158.234 361.907 160.361 359.64C162.488 357.373 164.175 354.681 165.326 351.719C166.477 348.756 167.069 345.581 167.069 342.375V32.9222C167.069 29.7158 166.477 26.5408 165.326 23.5785C164.175 20.6162 162.488 17.9246 160.361 15.6574C158.234 13.3901 155.71 11.5917 152.931 10.3647C150.152 9.13763 147.174 8.5061 144.167 8.5061V8.5061Z" fill="white"/>
<path d="M54.5321 71.4145H47.797C47.5602 71.4145 47.333 71.5148 47.1656 71.6933C46.9981 71.8718 46.9041 72.1139 46.9041 72.3664V75.518C46.9041 75.7705 46.9981 76.0126 47.1656 76.1911C47.333 76.3697 47.5602 76.47 47.797 76.47H48.9131V81.1922H53.4159V76.47H54.5321C54.7689 76.47 54.996 76.3697 55.1634 76.1911C55.3309 76.0126 55.425 75.7705 55.425 75.518V72.3664C55.425 72.1139 55.3309 71.8718 55.1634 71.6933C54.996 71.5148 54.7689 71.4145 54.5321 71.4145V71.4145Z" fill="#E6E6E6"/>
<path class="changeColor" d="M61.2779 100.258C57.1532 93.8234 55.0445 86.1622 55.254 78.3718C55.2578 78.192 55.2031 78.0164 55.0992 77.8748C54.9952 77.7332 54.8486 77.6342 54.684 77.5948V76.233H47.5709V77.5759H47.4729C47.2793 77.5762 47.0938 77.6584 46.9571 77.8045C46.8204 77.9506 46.7437 78.1487 46.744 78.355C46.744 78.3739 46.7446 78.3928 46.746 78.4117C47.3063 86.7395 45.4141 94.2078 41.0691 100.817C40.8191 101.196 40.6914 101.652 40.7051 102.116L41.4829 127.765C41.5016 128.337 41.7268 128.88 42.1116 129.279C42.4963 129.678 43.0109 129.904 43.5478 129.908H59.6366C60.1797 129.904 60.6996 129.673 61.0855 129.266C61.4714 128.858 61.6929 128.306 61.7028 127.728L62.0025 102.824C62.0114 101.91 61.7586 101.015 61.2779 100.258Z" fill="#6C63FF"/>
<path d="M58.731 108.778H44.727C44.5197 108.778 44.3148 108.826 44.1265 108.918C43.9381 109.01 43.7707 109.145 43.6357 109.313C43.5008 109.48 43.4014 109.677 43.3445 109.89C43.2875 110.102 43.2744 110.325 43.3059 110.544L45.4221 125.208H57.5737L60.1441 110.593C60.1831 110.372 60.1758 110.144 60.1228 109.926C60.0697 109.708 59.9723 109.505 59.8374 109.332C59.7025 109.158 59.5334 109.019 59.3422 108.923C59.1509 108.827 58.9423 108.778 58.731 108.778V108.778Z" fill="white"/>
<path d="M129.506 148.25H122.771C122.534 148.25 122.307 148.35 122.14 148.529C121.972 148.707 121.878 148.95 121.878 149.202V152.354C121.878 152.606 121.972 152.848 122.14 153.027C122.307 153.205 122.534 153.306 122.771 153.306H123.887V158.028H128.39V153.306H129.506C129.743 153.306 129.97 153.205 130.138 153.027C130.305 152.848 130.399 152.606 130.399 152.354V149.202C130.399 148.95 130.305 148.707 130.138 148.529C129.97 148.35 129.743 148.25 129.506 148.25Z" fill="#E6E6E6"/>
<path class="changeColor" d="M136.252 177.094C132.127 170.659 130.019 162.998 130.228 155.207C130.232 155.028 130.177 154.852 130.073 154.71C129.969 154.569 129.823 154.47 129.658 154.43V153.069H122.545V154.412H122.447C122.351 154.412 122.256 154.432 122.168 154.471C122.079 154.51 121.999 154.568 121.931 154.64C121.864 154.712 121.81 154.798 121.773 154.893C121.737 154.987 121.718 155.088 121.718 155.191C121.718 155.21 121.719 155.228 121.72 155.247C122.281 163.575 120.388 171.043 116.043 177.652C115.793 178.032 115.666 178.488 115.679 178.952L116.457 204.601C116.476 205.173 116.701 205.715 117.086 206.115C117.471 206.514 117.985 206.739 118.522 206.744H134.611C135.154 206.739 135.674 206.509 136.06 206.101C136.446 205.694 136.667 205.142 136.677 204.563L136.977 179.66C136.986 178.746 136.733 177.851 136.252 177.094V177.094Z" fill="#6C63FF"/>
<path d="M133.705 185.613H119.701C119.494 185.613 119.289 185.661 119.101 185.754C118.912 185.846 118.745 185.98 118.61 186.148C118.475 186.316 118.376 186.513 118.319 186.725C118.262 186.938 118.249 187.161 118.28 187.379L120.396 202.044H132.548L135.118 187.429C135.157 187.207 135.15 186.98 135.097 186.762C135.044 186.544 134.947 186.341 134.812 186.167C134.677 185.994 134.508 185.855 134.316 185.759C134.125 185.663 133.917 185.613 133.705 185.613H133.705Z" fill="white"/>
<path d="M45.0634 256.873H41.8687C41.7564 256.873 41.6486 256.921 41.5692 257.005C41.4898 257.09 41.4451 257.205 41.4451 257.325V258.82C41.4451 258.939 41.4898 259.054 41.5692 259.139C41.6486 259.224 41.7564 259.271 41.8687 259.271H42.3981V261.511H44.534V259.271H45.0634C45.1758 259.271 45.2835 259.224 45.3629 259.139C45.4424 259.054 45.487 258.939 45.487 258.82V257.325C45.487 257.205 45.4424 257.09 45.3629 257.005C45.2835 256.921 45.1758 256.873 45.0634 256.873Z" fill="#E6E6E6"/>
<path d="M48.2633 270.555C46.3067 267.503 45.3065 263.869 45.4059 260.173C45.4077 260.088 45.3817 260.005 45.3324 259.937C45.2831 259.87 45.2136 259.823 45.1355 259.805V259.159H41.7614V259.796H41.7149C41.6695 259.796 41.6245 259.805 41.5825 259.824C41.5405 259.843 41.5024 259.87 41.4703 259.904C41.4382 259.938 41.4127 259.979 41.3954 260.024C41.378 260.069 41.3691 260.117 41.3692 260.165C41.3692 260.174 41.3695 260.183 41.3701 260.192C41.6816 263.963 40.7273 267.729 38.6774 270.82C38.5588 271 38.4982 271.216 38.5047 271.436L38.8736 283.603C38.8825 283.874 38.9893 284.131 39.1718 284.321C39.3543 284.51 39.5984 284.617 39.8531 284.619H47.4847C47.7423 284.617 47.989 284.508 48.172 284.315C48.3551 284.121 48.4602 283.86 48.4648 283.585L48.607 271.772C48.6112 271.339 48.4913 270.914 48.2633 270.555V270.555Z" fill="#E6E6E6"/>
<path d="M47.165 275.027H39.8831V278.909H47.165V275.027Z" fill="white"/>
<path d="M59.935 256.873H56.7403C56.6279 256.873 56.5202 256.921 56.4408 257.005C56.3613 257.09 56.3167 257.205 56.3167 257.325V258.82C56.3167 258.939 56.3613 259.054 56.4408 259.139C56.5202 259.224 56.6279 259.271 56.7403 259.271H57.2697V261.511H59.4056V259.271H59.935C60.0474 259.271 60.1551 259.224 60.2345 259.139C60.314 259.054 60.3586 258.939 60.3586 258.82V257.325C60.3586 257.205 60.314 257.09 60.2345 257.005C60.1551 256.921 60.0474 256.873 59.935 256.873Z" fill="#E6E6E6"/>
<path d="M63.1349 270.555C61.1784 267.503 60.1782 263.869 60.2776 260.173C60.2793 260.088 60.2534 260.005 60.2041 259.937C60.1548 259.87 60.0852 259.823 60.0072 259.805V259.159H56.6331V259.796H56.5866C56.5411 259.796 56.4961 259.805 56.4541 259.824C56.4122 259.843 56.374 259.87 56.3419 259.904C56.3098 259.938 56.2843 259.979 56.267 260.024C56.2497 260.069 56.2408 260.117 56.2408 260.165C56.2408 260.174 56.2412 260.183 56.2418 260.192C56.5532 263.963 55.599 267.729 53.549 270.82C53.4304 271 53.3698 271.216 53.3763 271.436L53.7452 283.603C53.7541 283.874 53.8609 284.131 54.0435 284.321C54.226 284.51 54.47 284.617 54.7247 284.619H62.3564C62.614 284.617 62.8606 284.508 63.0437 284.315C63.2267 284.121 63.3318 283.86 63.3365 283.585L63.4786 271.772C63.4829 271.339 63.363 270.914 63.1349 270.555Z" fill="#E6E6E6"/>
<path d="M62.0366 275.027H54.7548V278.909H62.0366V275.027Z" fill="white"/>
<path d="M74.8067 256.873H71.6119C71.4996 256.873 71.3918 256.921 71.3124 257.005C71.233 257.09 71.1884 257.205 71.1884 257.325V258.82C71.1884 258.939 71.233 259.054 71.3124 259.139C71.3918 259.224 71.4996 259.271 71.6119 259.271H72.1413V261.511H74.2772V259.271H74.8067C74.919 259.271 75.0267 259.224 75.1062 259.139C75.1856 259.054 75.2302 258.939 75.2302 258.82V257.325C75.2302 257.205 75.1856 257.09 75.1062 257.005C75.0267 256.921 74.919 256.873 74.8067 256.873Z" fill="#E6E6E6"/>
<path d="M78.0065 270.555C76.05 267.503 75.0497 263.869 75.1491 260.173C75.1509 260.088 75.1249 260.005 75.0757 259.937C75.0264 259.87 74.9568 259.823 74.8787 259.805V259.159H71.5047V259.796H71.4582C71.4127 259.796 71.3677 259.805 71.3257 259.824C71.2837 259.843 71.2456 259.87 71.2135 259.904C71.1814 259.938 71.1559 259.979 71.1386 260.024C71.1212 260.069 71.1124 260.117 71.1124 260.165C71.1124 260.174 71.1127 260.183 71.1134 260.192C71.4248 263.963 70.4705 267.729 68.4206 270.82C68.302 271 68.2414 271.216 68.2479 271.436L68.6168 283.603C68.6257 283.874 68.7325 284.131 68.915 284.321C69.0975 284.51 69.3416 284.617 69.5963 284.619H77.228C77.4856 284.617 77.7322 284.508 77.9153 284.315C78.0983 284.121 78.2034 283.86 78.2081 283.585L78.3502 271.772C78.3544 271.339 78.2346 270.914 78.0065 270.555Z" fill="#E6E6E6"/>
<path d="M76.9082 275.027H69.6263V278.909H76.9082V275.027Z" fill="white"/>
<path d="M117.806 227.148H111.071C110.954 227.148 110.837 227.173 110.729 227.221C110.621 227.269 110.522 227.339 110.439 227.427C110.357 227.516 110.291 227.621 110.246 227.736C110.201 227.852 110.178 227.975 110.178 228.1V231.252C110.178 231.504 110.272 231.747 110.439 231.925C110.607 232.104 110.834 232.204 111.071 232.204H112.187V236.926H116.69V232.204H117.806C118.043 232.204 118.27 232.104 118.437 231.925C118.605 231.747 118.699 231.504 118.699 231.252V228.1C118.699 227.975 118.676 227.852 118.631 227.736C118.586 227.621 118.52 227.516 118.437 227.427C118.354 227.339 118.256 227.269 118.148 227.221C118.039 227.173 117.923 227.148 117.806 227.148V227.148Z" fill="#E6E6E6"/>
<path class="changeColor" d="M124.552 255.992C120.427 249.557 118.318 241.896 118.528 234.106C118.532 233.926 118.477 233.75 118.373 233.609C118.269 233.467 118.122 233.368 117.958 233.329V231.967H110.845V233.31H110.747C110.651 233.31 110.556 233.33 110.468 233.369C110.379 233.409 110.299 233.466 110.231 233.538C110.163 233.611 110.11 233.697 110.073 233.791C110.037 233.886 110.018 233.987 110.018 234.089C110.018 234.108 110.019 234.127 110.02 234.146C110.58 242.473 108.688 249.942 104.343 256.55C104.093 256.93 103.965 257.386 103.979 257.85L104.757 283.499C104.776 284.071 105.001 284.614 105.385 285.013C105.77 285.412 106.285 285.638 106.822 285.642H122.911C123.454 285.638 123.973 285.407 124.359 285C124.745 284.592 124.967 284.04 124.977 283.461L125.276 258.558C125.285 257.644 125.033 256.749 124.552 255.992Z" fill="#6C63FF"/>
<path d="M122.005 264.512H108.001C107.794 264.512 107.589 264.56 107.4 264.652C107.212 264.744 107.045 264.879 106.91 265.047C106.775 265.214 106.675 265.411 106.618 265.624C106.561 265.836 106.548 266.059 106.58 266.278L108.696 280.942H120.848L123.418 266.327C123.457 266.106 123.45 265.878 123.397 265.66C123.344 265.442 123.246 265.239 123.111 265.066C122.976 264.892 122.807 264.753 122.616 264.657C122.425 264.561 122.216 264.512 122.005 264.512V264.512Z" fill="white"/>
<path d="M121.483 133.21H81.3353C84.1422 117.032 83.4964 97.4958 81.3353 76.4861H121.483C119.379 97.4958 118.751 117.032 121.483 133.21Z" fill="#E6E6E6"/>
<path d="M101.651 113.615C106.994 113.615 111.325 108.997 111.325 103.301C111.325 97.6052 106.994 92.9877 101.651 92.9877C96.308 92.9877 91.9768 97.6052 91.9768 103.301C91.9768 108.997 96.308 113.615 101.651 113.615Z" fill="white"/>
<path d="M84.7212 208.499H44.5737C47.3806 192.32 46.7348 172.784 44.5737 151.775H84.7212C82.6176 172.784 81.989 192.32 84.7212 208.499Z" fill="#E6E6E6"/>
<path d="M64.8893 188.903C70.2322 188.903 74.5634 184.286 74.5634 178.59C74.5634 172.894 70.2322 168.276 64.8893 168.276C59.5464 168.276 55.2152 172.894 55.2152 178.59C55.2152 184.286 59.5464 188.903 64.8893 188.903Z" fill="white"/>
<path d="M144.217 134.242H104.069C106.876 118.063 106.231 98.5271 104.069 77.5174H144.217C142.113 98.5272 141.485 118.063 144.217 134.242Z" fill="#E6E6E6"/>
<path d="M144.217 136.82H104.069C106.876 120.642 106.231 101.106 104.069 80.0958H144.217C142.113 101.106 141.485 120.642 144.217 136.82Z" fill="#E6E6E6"/>
<path d="M124.385 117.224C129.728 117.224 134.059 112.607 134.059 106.911C134.059 101.215 129.728 96.5974 124.385 96.5974C119.042 96.5974 114.711 101.215 114.711 106.911C114.711 112.607 119.042 117.224 124.385 117.224Z" fill="white"/>
<path d="M153.407 130.116H21.8397V145.587H153.407V130.116Z" fill="#E6E6E6"/>
<path d="M153.407 206.952H21.8397V222.422H153.407V206.952Z" fill="#E6E6E6"/>
<path d="M153.407 283.788H21.8397V299.258H153.407V283.788Z" fill="#E6E6E6"/>
</svg>
