<svg width="283" height="266" viewBox="0 0 283 266" fill="none" xmlns="http://www.w3.org/2000/svg">
<path class="changeColor" d="M382.275 346.55L349.497 321.834C360.552 310.353 370.607 294.006 380.222 275.523L413 300.238C399.902 316.096 388.807 331.659 382.275 346.55Z" fill="#6C63FF"/>
<path d="M382.284 320.236C387.627 320.236 391.958 315.618 391.958 309.922C391.958 304.226 387.627 299.609 382.284 299.609C376.941 299.609 372.61 304.226 372.61 309.922C372.61 315.618 376.941 320.236 382.284 320.236Z" fill="white"/>
<path d="M224.16 233.767H220.562C220.435 233.767 220.314 233.821 220.224 233.916C220.135 234.011 220.085 234.141 220.085 234.276V235.959C220.085 236.026 220.097 236.092 220.121 236.154C220.145 236.215 220.18 236.272 220.224 236.319C220.269 236.366 220.321 236.403 220.379 236.429C220.437 236.455 220.499 236.468 220.562 236.468H221.158V238.99H223.563V236.468H224.16C224.286 236.468 224.408 236.414 224.497 236.319C224.586 236.223 224.637 236.094 224.637 235.959V234.276C224.637 234.141 224.586 234.011 224.497 233.916C224.408 233.821 224.286 233.767 224.16 233.767V233.767Z" fill="#E6E6E6"/>
<path class="changeColor" d="M227.763 249.176C225.56 245.738 224.433 241.645 224.545 237.484C224.547 237.388 224.518 237.294 224.463 237.218C224.407 237.142 224.329 237.09 224.241 237.069V236.341H220.441V237.058H220.389C220.337 237.059 220.287 237.069 220.239 237.09C220.192 237.111 220.149 237.142 220.113 237.181C220.077 237.219 220.048 237.265 220.029 237.316C220.009 237.366 219.999 237.42 219.999 237.475C219.999 237.485 220 237.495 220 237.505C220.351 241.752 219.276 245.993 216.968 249.474C216.834 249.677 216.766 249.92 216.773 250.168L217.189 263.87C217.199 264.176 217.319 264.466 217.524 264.679C217.73 264.892 218.005 265.013 218.292 265.015H226.887C227.177 265.013 227.454 264.89 227.661 264.672C227.867 264.454 227.985 264.159 227.99 263.85L228.15 250.546C228.155 250.058 228.02 249.58 227.763 249.176V249.176Z" fill="#6C63FF"/>
<path opacity="0.2" d="M223.41 234.316C223.41 234.607 223.301 234.886 223.108 235.091C222.915 235.297 222.653 235.413 222.38 235.413C222.108 235.413 221.846 235.297 221.653 235.091C221.46 234.886 221.351 234.607 221.351 234.316" fill="black"/>
<path d="M226.089 251.816H218.834V256.972H226.089V251.816Z" fill="white"/>
<path d="M338.019 287.296H331.284C331.047 287.296 330.82 287.396 330.652 287.575C330.485 287.753 330.391 287.995 330.391 288.248V291.399C330.391 291.652 330.485 291.894 330.652 292.073C330.82 292.251 331.047 292.351 331.284 292.351H332.4V297.074H336.903V292.351H338.019C338.256 292.351 338.483 292.251 338.65 292.073C338.818 291.894 338.912 291.652 338.912 291.399V288.248C338.912 287.995 338.818 287.753 338.65 287.575C338.483 287.396 338.256 287.296 338.019 287.296V287.296Z" fill="#E6E6E6"/>
<path class="changeColor" d="M344.765 316.139C340.64 309.705 338.531 302.044 338.741 294.253C338.744 294.073 338.69 293.898 338.586 293.756C338.482 293.615 338.335 293.516 338.171 293.476V292.114H331.058V293.457H330.96C330.864 293.457 330.769 293.478 330.68 293.517C330.592 293.556 330.511 293.614 330.444 293.686C330.376 293.758 330.322 293.844 330.286 293.939C330.249 294.033 330.231 294.134 330.231 294.236C330.231 294.255 330.231 294.274 330.233 294.293C330.793 302.621 328.901 310.089 324.556 316.698C324.306 317.078 324.178 317.534 324.192 317.997L324.97 343.647C324.988 344.219 325.214 344.761 325.598 345.16C325.983 345.56 326.498 345.785 327.035 345.79H343.123C343.666 345.785 344.186 345.554 344.572 345.147C344.958 344.74 345.18 344.188 345.189 343.609L345.489 318.706C345.498 317.792 345.245 316.896 344.765 316.139V316.139Z" fill="#6C63FF"/>
<path opacity="0.2" d="M336.615 288.323C336.615 288.868 336.412 289.39 336.05 289.775C335.689 290.16 335.199 290.377 334.688 290.377C334.177 290.377 333.687 290.16 333.326 289.775C332.965 289.39 332.762 288.868 332.762 288.323" fill="black"/>
<path d="M342.218 324.659H328.214C328.006 324.659 327.802 324.707 327.613 324.799C327.425 324.892 327.257 325.026 327.122 325.194C326.987 325.362 326.888 325.559 326.831 325.771C326.774 325.984 326.761 326.207 326.793 326.425L328.909 341.09H341.06L343.631 326.475C343.67 326.253 343.662 326.025 343.609 325.807C343.556 325.589 343.459 325.387 343.324 325.213C343.189 325.04 343.02 324.9 342.829 324.805C342.638 324.709 342.429 324.659 342.218 324.659V324.659Z" fill="white"/>
<path class="changeColor" d="M318.802 346.509H278.655C281.462 330.331 280.816 310.795 278.655 289.785H318.802C316.699 310.795 316.07 330.331 318.802 346.509Z" fill="#6C63FF"/>
<path d="M298.971 326.913C304.313 326.913 308.645 322.296 308.645 316.6C308.645 310.904 304.313 306.286 298.971 306.286C293.628 306.286 289.296 310.904 289.296 316.6C289.296 322.296 293.628 326.913 298.971 326.913Z" fill="white"/>
<path d="M154.59 167.99L163.602 167.116L169.338 152.267L159.096 146.153L154.59 167.99Z" fill="#FFB8B8"/>
<path d="M237.303 208.756C237.603 207.959 237.721 207.097 237.647 206.243C237.573 205.388 237.31 204.564 236.879 203.839C236.447 203.114 235.861 202.508 235.167 202.072C234.474 201.636 233.693 201.382 232.889 201.331L218.895 200.442L216.835 207.746L231.241 211.964C232.444 212.316 233.728 212.184 234.846 211.592C235.964 211.001 236.839 209.991 237.303 208.756V208.756Z" fill="#FFB8B8"/>
<path d="M222.277 212.086L222.123 198.38L191.04 193.093L167.094 163.814C165.849 162.291 164.127 161.3 162.249 161.027C160.37 160.753 158.463 161.214 156.879 162.325C155.92 162.997 155.111 163.886 154.51 164.929C153.909 165.971 153.53 167.142 153.4 168.357C153.269 169.573 153.391 170.805 153.756 171.965C154.122 173.125 154.721 174.185 155.513 175.071L175.269 200.989L222.277 212.086Z" fill="#575A89"/>
<path d="M147.625 366.275H155.819L176.141 268.317L197.195 298.578L209.486 364.091H217.269L215.631 293.774L188.183 218.653H161.144C153.755 232.909 147.959 247.605 154.59 262.765L147.625 366.275Z" fill="#353176"/>
<path d="M204.463 372.224C204.372 372.534 204.345 372.86 204.381 373.181C204.418 373.502 204.519 373.812 204.677 374.088C204.834 374.365 205.046 374.603 205.296 374.786C205.547 374.969 205.831 375.092 206.13 375.149L226.18 378.942C226.972 379.097 227.79 378.937 228.479 378.493C229.169 378.049 229.682 377.351 229.922 376.532V376.532C230.156 375.749 230.123 374.903 229.83 374.143C229.537 373.383 229.002 372.757 228.319 372.376C223.91 369.963 220.116 366.446 217.262 362.128C215.058 364.315 212.595 364.109 209.98 362.497L207.206 362.867L204.463 372.224Z" fill="#19191B"/>
<path d="M143.831 372.224C143.741 372.534 143.713 372.86 143.75 373.181C143.787 373.502 143.887 373.812 144.045 374.088C144.203 374.365 144.414 374.603 144.665 374.786C144.915 374.969 145.2 375.092 145.499 375.149L165.548 378.942C166.34 379.097 167.158 378.937 167.848 378.493C168.537 378.049 169.05 377.351 169.29 376.532V376.532C169.524 375.749 169.492 374.903 169.198 374.143C168.905 373.383 168.37 372.757 167.687 372.376C163.279 369.963 159.485 366.446 156.63 362.128C154.427 364.315 151.964 364.109 149.348 362.497L146.574 362.867L143.831 372.224Z" fill="#19191B"/>
<path d="M169.543 157.726C175.878 157.726 181.013 152.251 181.013 145.497C181.013 138.743 175.878 133.268 169.543 133.268C163.207 133.268 158.072 138.743 158.072 145.497C158.072 152.251 163.207 157.726 169.543 157.726Z" fill="#FFB8B8"/>
<path d="M159.301 221.929L189.207 221.055L180.424 191.586C185.882 182.258 180.389 172.939 172.615 163.623L166.47 159.255L156.638 158.382C152.381 163.238 150.052 169.662 150.138 176.308C150.333 190.539 152.696 206.032 159.301 221.929Z" fill="#575A89"/>
<path d="M228.011 241.765C228.581 241.158 229.007 240.415 229.255 239.598C229.502 238.781 229.564 237.914 229.435 237.066C229.306 236.219 228.991 235.416 228.514 234.724C228.037 234.033 227.413 233.472 226.693 233.087L214.155 226.401L209.566 232.252L221.254 242.171C222.23 243 223.459 243.417 224.705 243.342C225.952 243.267 227.129 242.705 228.011 241.765V241.765Z" fill="#FFB8B8"/>
<path d="M212.968 238.525L217.884 225.859L191.258 207.962L180.047 171.002C179.463 169.079 178.246 167.446 176.62 166.407C174.994 165.367 173.07 164.991 171.204 165.348V165.348C170.075 165.564 169.003 166.043 168.066 166.749C167.128 167.455 166.348 168.372 165.78 169.435C165.211 170.498 164.869 171.682 164.777 172.901C164.684 174.121 164.844 175.347 165.246 176.494L173.844 208.608L212.968 238.525Z" fill="#575A89"/>
<path d="M150.698 140.693C150.698 145.452 153.596 152.821 157.252 155.979C159.712 158.105 162.963 158.015 164.217 155.106C165.503 152.121 169.935 145.106 177.736 140.693C188.135 134.81 174.048 124.746 164.217 126.28C156.829 127.434 150.698 132.733 150.698 140.693Z" fill="#463C19"/>
<path d="M157.662 134.142C162.187 134.142 165.856 130.231 165.856 125.407C165.856 120.583 162.187 116.672 157.662 116.672C153.137 116.672 149.469 120.583 149.469 125.407C149.469 130.231 153.137 134.142 157.662 134.142Z" fill="#463C19"/>
<path d="M167.085 122.35C167.084 120.147 166.302 118.027 164.897 116.413C163.491 114.799 161.566 113.812 159.506 113.648C159.709 113.632 159.913 113.615 160.12 113.615C162.293 113.615 164.377 114.535 165.914 116.173C167.45 117.811 168.314 120.033 168.314 122.35C168.314 124.666 167.45 126.888 165.914 128.526C164.377 130.164 162.293 131.085 160.12 131.085C159.913 131.085 159.709 131.068 159.506 131.052C161.566 130.888 163.491 129.9 164.897 128.286C166.302 126.672 167.084 124.552 167.085 122.35Z" fill="#463C19"/>
<path d="M169.747 149.865C170.766 149.865 171.591 148.692 171.591 147.244C171.591 145.797 170.766 144.624 169.747 144.624C168.729 144.624 167.904 145.797 167.904 147.244C167.904 148.692 168.729 149.865 169.747 149.865Z" fill="#FFB8B8"/>
<path d="M401.894 350.255H274.347L247.338 214.136H224.288V208.028H251.982L278.991 344.147H401.894V350.255Z" fill="#3F3D56"/>
<path d="M293.039 375.123C299.819 375.123 305.316 369.263 305.316 362.035C305.316 354.806 299.819 348.946 293.039 348.946C286.258 348.946 280.762 354.806 280.762 362.035C280.762 369.263 286.258 375.123 293.039 375.123Z" fill="#3F3D56"/>
<path d="M384.706 375.123C391.487 375.123 396.983 369.263 396.983 362.035C396.983 354.806 391.487 348.946 384.706 348.946C377.926 348.946 372.43 354.806 372.43 362.035C372.43 369.263 377.926 375.123 384.706 375.123Z" fill="#3F3D56"/>
<path d="M399.569 347.379H275.473L253.577 232.023H420.116C420.966 232.024 421.806 232.22 422.577 232.599C423.349 232.978 424.035 233.531 424.587 234.219C425.14 234.908 425.546 235.716 425.777 236.587C426.009 237.459 426.06 238.374 425.929 239.269L405.38 342.081C405.168 343.56 404.465 344.909 403.398 345.881C402.331 346.854 400.972 347.385 399.569 347.379V347.379ZM276.82 345.634H399.569C400.582 345.639 401.562 345.255 402.332 344.553C403.102 343.851 403.61 342.877 403.762 341.81L424.311 238.998C424.406 238.352 424.369 237.692 424.202 237.062C424.035 236.433 423.742 235.85 423.343 235.353C422.945 234.856 422.45 234.457 421.893 234.184C421.336 233.91 420.729 233.768 420.116 233.769H255.564L276.82 345.634Z" fill="#3F3D56"/>
<path d="M299.597 347.01L285.258 233.038L286.873 232.754L301.212 346.726L299.597 347.01Z" fill="#3F3D56"/>
<path d="M379.328 346.135L377.712 345.856L391.632 232.756L393.248 233.036L379.328 346.135Z" fill="#3F3D56"/>
<path d="M341.341 232.896H339.704V346.868H341.341V232.896Z" fill="#3F3D56"/>
<path d="M261.939 263.436L261.935 265.181L420.387 265.59L420.391 263.845L261.939 263.436Z" fill="#3F3D56"/>
<path d="M409.21 317.344L270.006 318.359L270.017 320.104L409.221 319.089L409.21 317.344Z" fill="#3F3D56"/>
<path d="M226.743 215.445C231.715 215.445 235.746 213.101 235.746 210.209C235.746 207.318 231.715 204.974 226.743 204.974C221.771 204.974 217.74 207.318 217.74 210.209C217.74 213.101 221.771 215.445 226.743 215.445Z" fill="#3F3D56"/>
</svg>
